# xmcd
#
# Track frame offsets:
#	150
#	15108
#	31302
#	45107
#	58978
#	75783
#	89663
#	103846
#	120789
#	136974
#	148749
#	163614
#	175944
#	190667
#	208989
#	222441
#	239015
#	255626
#
# Disc length: 3628 seconds
#
# Revision: 1
# Processed by: cddbd v1.5.2PL0 Copyright (c) Steve Scherf et al.
# Submitted via: audiograbber 1.83.01
#
DISCID=f20e2a12
DTITLE=Various - Jan 12 Country Radio
DYEAR=2012
DGENRE=Country
TTITLE0=Trace Adkins - Million Dollar View
TTITLE1=Keith Urban - You Gonna Fly
TTITLE2=David Bradley - If You Can't Make Money
TTITLE3=Lauren Alaina - Georgia Peaches
TTITLE4=Uncle Kracker - My Hometown
TTITLE5=Love And Theft - Angel Eyes
TTITLE6=Rodney Atkins - He's Mine
TTITLE7=George Strait - Love's Gonna Make It Alright
TTITLE8=Gloriana - (Kissed You) Good Night
TTITLE9=Billy Currington - Like My Dog (Clean Edit With Bark)
TTITLE10=Craig Campbell - When I Get It (Clean Edit)
TTITLE11=Andy Gibson - Wanna Make You Love Me
TTITLE12=Levi Hart - We All Make Mistakes
TTITLE13=Sugarland (feat) Matt Nathanson - Run
TTITLE14=Mark Cooke - Any Way The Wind Blows
TTITLE15=Toby Keith - Red Solo Cup (Album Version)(Explicit)
TTITLE16=Toby Keith - Red Solo Cup (Vegetables)(Explicit)
TTITLE17=Toby Keith - Red Solo Cup (Bleeped)(Explicit)
EXTD=
EXTT0=
EXTT1=
EXTT2=
EXTT3=
EXTT4=
EXTT5=
EXTT6=
EXTT7=
EXTT8=
EXTT9=
EXTT10=
EXTT11=
EXTT12=
EXTT13=
EXTT14=
EXTT15=
EXTT16=
EXTT17=
PLAYORDER=
